<svg xmlns="http://www.w3.org/2000/svg" width="256" height="256" viewBox="0 0 100 100"><rect width="100" height="100" rx="20" fill="#000000"></rect><path fill="#fff" d="M19.95 86.78L7.60 86.78L7.60 35.48L15.15 35.48Q17.55 35.48 18.30 37.73L18.30 37.73L19.15 41.78Q20.70 40.18 22.42 38.88Q24.15 37.58 26.07 36.63Q28.00 35.68 30.20 35.18Q32.40 34.68 35.00 34.68L35.00 34.68Q39.20 34.68 42.45 36.10Q45.70 37.53 47.87 40.10Q50.05 42.68 51.17 46.25Q52.30 49.83 52.30 54.13L52.30 54.13L52.30 86.78L39.95 86.78L39.95 54.13Q39.95 49.43 37.77 46.85Q35.60 44.28 31.25 44.28L31.25 44.28Q28.05 44.28 25.25 45.73Q22.45 47.18 19.95 49.68L19.95 49.68L19.95 86.78ZM79 86.78L66.65 86.78L66.65 44.78L62.20 44.08Q60.75 43.83 59.87 43.08Q59.00 42.33 59.00 40.98L59.00 40.98L59.00 35.93L66.65 35.93L66.65 32.13Q66.65 27.73 67.97 24.23Q69.30 20.73 71.77 18.28Q74.25 15.83 77.80 14.53Q81.35 13.23 85.80 13.23L85.80 13.23Q89.35 13.23 92.40 14.17L92.40 14.17L92.15 20.38Q92.05 21.83 90.80 22.17Q89.55 22.53 87.90 22.53L87.90 22.53Q85.70 22.53 83.97 23Q82.25 23.48 81.05 24.65Q79.85 25.83 79.22 27.75Q78.60 29.68 78.60 32.53L78.60 32.53L78.60 35.93L91.95 35.93L91.95 44.73L79 44.73L79 86.78Z"></path></svg>